<?xml version="1.0" encoding="utf-8"?><!DOCTYPE svg PUBLIC "-//W3C//DTD SVG 1.1//EN" "http://www.w3.org/Graphics/SVG/1.1/DTD/svg11.dtd"><svg version="1.1" xmlns:sodipodi="http://sodipodi.sourceforge.net/DTD/sodipodi-0.dtd" xmlns:rdf="http://www.w3.org/1999/02/22-rdf-syntax-ns#" xmlns:dc="http://purl.org/dc/elements/1.1/" xmlns:cc="http://creativecommons.org/ns#" xmlns:inkscape="http://www.inkscape.org/namespaces/inkscape" xmlns:svg="http://www.w3.org/2000/svg" xmlns="http://www.w3.org/2000/svg" xmlns:xlink="http://www.w3.org/1999/xlink" x="0px" y="0px" viewBox="0.354 9.633 100 101.8475" enable-background="new 0.354 9.633 100 81.478" xml:space="preserve" fill="#333"><path d="M94.995,27.002c-0.135,0-0.242,0.153-0.242,0.343v5.342v0.28v0.28
	c-0.524,0.198-1.686,1.169-1.686,2.991v11.198c0,0.278,0.101,0.717,0.529,0.717h3.798c0.428,0,0.528-0.438,0.528-0.717V36.239
	c0-1.871-1.18-2.846-1.684-3.006v-0.265v-0.28v-5.342c0-0.19-0.108-0.343-0.242-0.343H94.995z"/><path d="M21.231,30.025c3.089,0,5.594-2.88,5.594-6.422s-2.505-6.417-5.594-6.417c-3.088,0-5.593,2.875-5.593,6.417
	S18.144,30.025,21.231,30.025z"/><path d="M14.118,44.849c0,0.013-0.006,0.025-0.006,0.039v4.085h0.006V44.849z"/><path d="M13.852,62.69c-1.002,0-1.817-0.925-1.817-2.061v-2.157l-3.93,7.17c-0.233,0.426-0.178,0.934,0.091,1.273V80.31
	c0,0.683,0.441,1.235,0.985,1.235h3.683c0.544,0,0.986-0.553,0.986-1.235V67.35l2.554-4.659H13.852z"/><path d="M22.974,86.097V62.69v-0.963v-0.964h2.034h2.713c0.012-0.031,0.021-0.076,0.021-0.134v-2.55c0-0.058-0.01-0.103-0.021-0.135
	h-4.258h-0.767h-3.693h-0.313h-4.708c-0.012,0.032-0.021,0.077-0.021,0.135v2.55c0,0.058,0.01,0.103,0.021,0.134h3.477h0.953v0.964
	v0.963v23.41c-5.049,0.242-8.839,1.26-8.839,2.477c0,1.398,4.995,2.533,11.156,2.533c6.162,0,11.157-1.135,11.157-2.533
	C31.885,87.354,28.059,86.332,22.974,86.097z"/><path d="M77.244,23.138c2.966,0,5.366-3.024,5.366-6.754c0-3.726-2.4-6.751-5.366-6.751c-2.964,0-5.367,3.026-5.367,6.751
	C71.877,20.114,74.28,23.138,77.244,23.138z"/><path d="M99.411,48.973h-9.543V33.235c0-7.091-1.681-8.765-6.852-8.765l-5.772,0.002l-5.767-0.002c-2.5,0-3.109,1.021-3.786,1.872
	L57.471,41.786c-0.129-0.074-0.27-0.108-0.419-0.086c-0.244,0.037-0.959,0.292-0.959,0.292c-0.011,0-0.022,0.003-0.034,0.005v-1.709
	h-0.003c0-0.132,0-0.592,0-0.784c-0.002-0.451-0.014-0.912-0.139-1.321c-0.111-0.416-0.433-0.769-0.842-0.75
	c-0.063,0-0.129,0.006-0.196,0.02c-0.482,0.086-0.8,0.454-1.022,0.762c-0.223,0.32-0.389,0.552-0.486,0.571
	c-0.044,0.016-0.09,0.023-0.139,0.023c-0.195,0.003-0.431-0.138-0.574-0.255c-0.166-0.125-0.607-0.589-1.167-0.595
	c-0.475-0.005-0.845,0.263-1.062,0.646c-0.218,0.381-0.299,0.842-0.3,1.258l0,0.464v7.945c0,0.284,0.1,0.53,0.249,0.701H28.346
	v-9.147c0,0,2.973,4.753,3.886,6.396c1.342,2.415,2.761,3.152,4.278,0.97l5.439-7.537c0.181,0.215,0.413,0.341,0.667,0.303
	c0.244-0.037,0.958-0.292,0.958-0.292c0.013,0,0.023-0.004,0.036-0.005v0.775c0,0.515,0.31,0.934,0.693,0.934h4.544
	c0.383,0,0.692-0.419,0.692-0.934v-7.945l0-0.464c-0.001-0.415-0.082-0.876-0.3-1.258c-0.218-0.383-0.588-0.651-1.061-0.646
	c-0.561,0.006-1.001,0.47-1.168,0.595c-0.143,0.118-0.38,0.259-0.575,0.255c-0.049,0-0.094-0.008-0.138-0.023
	c-0.097-0.019-0.263-0.251-0.486-0.571c-0.223-0.309-0.541-0.675-1.022-0.762c-0.068-0.013-0.134-0.02-0.197-0.02
	c-0.409-0.019-0.729,0.334-0.841,0.75c-0.125,0.41-0.138,0.871-0.139,1.321c0,0.192,0,0.652,0,0.785H43.61v1.708
	c-0.012-0.001-0.023-0.005-0.036-0.005c0,0-0.714-0.255-0.958-0.292c-0.47-0.071-0.866,0.403-0.991,1.002
	c-0.811-0.38-1.812-0.265-2.594,0.709l-3.541,4.861c0,0.08-1.171-1.999-1.553-2.67c-1.964-3.463-2.646-6.48-6.695-6.48l-6.011,0.004
	l-6.013-0.004c-5.39,0-7.172,1.597-7.142,8.334l0.042,9.352H1.296c-0.521,0-0.942,0.542-0.942,1.211v4.352
	c0,0.669,0.422,1.211,0.942,1.211h12.231l-0.203,0.371c0.168-0.058,0.343-0.099,0.527-0.099h0.296h5.742h2.886h5.076
	c0.137,0,0.268,0.019,0.395,0.049c0.822,0.2,1.422,1.012,1.422,2.012v2.55c0,1.154-0.798,2.061-1.817,2.061h-1.788l2.729,4.979
	v12.96c0,0.681,0.441,1.233,0.985,1.233h3.683c0.544,0,0.986-0.553,0.986-1.233V67.234c0.268-0.339,0.324-0.846,0.091-1.271
	l-5.599-10.216h41.478v31.158c0,5.39,5.875,5.232,5.875,0l0.372-30.126h1.165l0.369,30.126c0,5.232,5.875,5.39,5.875,0V55.747h1.856
	c0.816,1.64,2.745,1.64,3.562,0h9.92c0.521,0,0.942-0.542,0.942-1.211v-4.352C100.354,49.516,99.933,48.973,99.411,48.973z
	 M45.293,39.493c0,0.228-0.13,0.412-0.292,0.412c-0.16,0-0.292-0.184-0.292-0.412v-5.167c0-0.226,0.131-0.409,0.292-0.409
	c0.162,0,0.292,0.184,0.292,0.409V39.493z M46.867,39.493c0,0.228-0.131,0.412-0.292,0.412c-0.162,0-0.292-0.184-0.292-0.412v-5.167
	c0-0.226,0.13-0.409,0.292-0.409c0.16,0,0.292,0.184,0.292,0.409V39.493z M48.439,39.493c0,0.228-0.13,0.412-0.291,0.412
	c-0.162,0-0.292-0.184-0.292-0.412v-5.167c0-0.226,0.131-0.409,0.292-0.409c0.161,0,0.291,0.184,0.291,0.409V39.493z M44.152,31.668
	c-0.002-0.42,0.023-0.813,0.096-1.04c0.084-0.221,0.12-0.284,0.345-0.303c0.035,0,0.076,0.004,0.123,0.013
	c0.314,0.061,0.51,0.276,0.713,0.553c0.204,0.265,0.378,0.621,0.732,0.765c0.093,0.033,0.186,0.047,0.276,0.046
	c0.361-0.003,0.663-0.209,0.85-0.357c0.201-0.17,0.563-0.499,0.893-0.493c0.335,0.005,0.51,0.156,0.636,0.367
	C48.939,31.432,49,31.741,49,32.027v0.426h-4.848V31.668z M42.368,35.257c0-0.103,0.062-0.187,0.139-0.187l1.067,0.292
	c0.012,0,0.023-0.004,0.036-0.005v3.107c-0.012-0.001-0.023-0.005-0.036-0.005l-0.98,0.269c0.77-1.265,0.493-2.535-0.226-3.312
	V35.257z M14.118,44.849v4.124h-0.006h-1.557l0.406-7.667h1.156V44.849z M51.812,47.329c0,0.228-0.131,0.412-0.292,0.412
	s-0.291-0.184-0.291-0.412v-5.167c0-0.226,0.13-0.41,0.291-0.41s0.292,0.184,0.292,0.41V47.329z M53.386,47.329
	c0,0.228-0.132,0.412-0.293,0.412s-0.292-0.184-0.292-0.412v-5.167c0-0.226,0.131-0.41,0.292-0.41s0.293,0.184,0.293,0.41V47.329z
	 M54.959,47.329c0,0.228-0.132,0.412-0.292,0.412c-0.162,0-0.292-0.184-0.292-0.412v-5.167c0-0.226,0.13-0.41,0.292-0.41
	c0.16,0,0.292,0.184,0.292,0.41V47.329z M55.517,40.288h-4.849v-0.426c-0.001-0.286,0.061-0.595,0.185-0.808
	c0.127-0.211,0.302-0.361,0.638-0.367c0.328-0.006,0.691,0.323,0.892,0.493c0.188,0.148,0.488,0.353,0.85,0.356
	c0.09,0.001,0.183-0.013,0.277-0.046c0.353-0.144,0.527-0.5,0.731-0.765c0.203-0.277,0.398-0.492,0.712-0.553
	c0.048-0.008,0.089-0.012,0.123-0.012c0.226,0.019,0.261,0.082,0.345,0.302c0.073,0.226,0.099,0.619,0.097,1.04V40.288z
	 M56.059,43.193c0.012,0.001,0.023,0.005,0.034,0.005l0.729-0.199c-0.446,1.251-0.159,2.485,0.478,3.322v0.08
	c0,0.103-0.062,0.187-0.138,0.187l-1.068-0.292c-0.011,0-0.022,0.004-0.034,0.005V43.193z M55.809,48.973
	c0.15-0.171,0.25-0.417,0.25-0.701v-0.776c0.012,0.001,0.022,0.005,0.034,0.005c0,0,0.715,0.255,0.959,0.292
	c0.418,0.063,0.779-0.306,0.942-0.81c0.92,0.609,2.109,0.553,3.007-0.751l9.416-12.784v15.525H55.809z M84.073,35.003h1.107
	l0.274,13.97h-1.382V35.003z"/></svg>