<svg xmlns="http://www.w3.org/2000/svg" xmlns:xlink="http://www.w3.org/1999/xlink" viewBox="0 0 60 71.25" version="1.1" x="0px" y="0px"><title>23 -Bar- (Solid)</title><desc>Created with Sketch.</desc><g stroke="none" stroke-width="1" fill="none" fill-rule="evenodd"><g transform="translate(-359.000000, -643.000000)" fill="#000000"><g transform="translate(359.000000, 643.000000)"><path d="M25.6266,54.043 C27.5356,52.772 29.0636,50.968 29.9966,48.844 C30.5876,50.209 31.4356,51.46 32.5146,52.54 C33.0806,53.106 33.6936,53.608 34.3466,54.043 L25.6266,54.043 Z M28.0106,10 L32.0106,10 L32.0106,8 L28.0106,8 L28.0106,10 Z M41.0106,54.043 L40.8706,54.043 C35.4206,53.967 31.0106,49.511 31.0106,44.043 L31.0106,44.034 L31.0106,44 L31.0106,12 L32.5966,12 L34.3026,13.707 C34.3956,13.799 34.5056,13.872 34.6286,13.923 C34.7506,13.973 34.8806,14 35.0106,14 L37.0106,14 C37.5626,14 38.0106,13.552 38.0106,13 C38.0106,12.448 37.5626,12 37.0106,12 L35.4246,12 L34.0106,10.586 L34.0106,8 L42.0106,8 C44.2156,8 46.0106,6.206 46.0106,4 C46.0106,1.794 44.2156,0 42.0106,0 L18.0106,0 C15.8046,0 14.0106,1.794 14.0106,4 C14.0106,6.206 15.8046,8 18.0106,8 L26.0106,8 L26.0106,12 L29.0106,12 L29.0106,44 C29.0106,46.689 27.9736,49.212 26.0906,51.105 C24.2066,53 21.6926,54.043 19.0126,54.043 L19.0106,54.043 L19.0106,54.043 C18.4586,54.043 18.0106,54.491 18.0106,55.043 C18.0106,55.596 18.4586,56.043 19.0106,56.043 L19.1636,56.043 L41.0106,56.043 L41.0106,56.043 C41.5626,56.043 42.0106,55.595 42.0106,55.043 C42.0106,54.49 41.5626,54.043 41.0106,54.043 L41.0106,54.043 Z"/><path d="M7.01,19 L11.01,19 L11.01,17 L7.01,17 L7.01,19 Z M10.597,54.043 L7.424,54.043 C8.021,53.422 8.572,52.708 9.01,51.977 C9.449,52.708 10,53.422 10.597,54.043 L10.597,54.043 Z M16.01,21 L14.424,21 L13.01,19.586 L13.01,17 L14.01,17 C16.216,17 18.01,15.206 18.01,13 C18.01,10.794 16.216,9 14.01,9 L4.01,9 C1.805,9 0.01,10.794 0.01,13 C0.01,15.206 1.805,17 4.01,17 L5.01,17 L5.01,21 L8.01,21 L8.01,49.043 C8.01,50.83 5.032,54.043 4.01,54.043 C3.458,54.043 3.01,54.491 3.01,55.043 C3.01,55.596 3.458,56.043 4.01,56.043 L14.01,56.043 C14.563,56.043 15.01,55.596 15.01,55.043 C15.01,54.491 14.563,54.043 14.01,54.043 C12.988,54.043 10.01,50.83 10.01,49.043 L10.01,21 L11.596,21 L13.303,22.707 C13.395,22.799 13.506,22.872 13.628,22.923 C13.75,22.973 13.88,23 14.01,23 L16.01,23 C16.563,23 17.01,22.552 17.01,22 C17.01,21.448 16.563,21 16.01,21 L16.01,21 Z"/><path d="M49.01,20 L53.01,20 L53.01,18 L49.01,18 L49.01,20 Z M52.597,54.043 L49.424,54.043 C50.021,53.422 50.572,52.708 51.01,51.977 C51.449,52.708 52,53.422 52.597,54.043 L52.597,54.043 Z M58.01,22 L56.424,22 L55.01,20.586 L55.01,18 L56.01,18 C58.216,18 60.01,16.206 60.01,14 C60.01,11.794 58.216,10 56.01,10 L46.01,10 C43.805,10 42.01,11.794 42.01,14 C42.01,16.206 43.805,18 46.01,18 L47.01,18 L47.01,22 L50.01,22 L50.01,49.043 C50.01,50.83 47.032,54.043 46.01,54.043 C45.458,54.043 45.01,54.491 45.01,55.043 C45.01,55.596 45.458,56.043 46.01,56.043 L56.01,56.043 C56.563,56.043 57.01,55.596 57.01,55.043 C57.01,54.491 56.563,54.043 56.01,54.043 C54.988,54.043 52.01,50.83 52.01,49.043 L52.01,22 L53.596,22 L55.303,23.707 C55.395,23.799 55.506,23.872 55.628,23.923 C55.75,23.973 55.88,24 56.01,24 L58.01,24 C58.563,24 59.01,23.552 59.01,23 C59.01,22.448 58.563,22 58.01,22 L58.01,22 Z"/></g></g></g></svg>