<svg xmlns="http://www.w3.org/2000/svg" xmlns:xlink="http://www.w3.org/1999/xlink" version="1.1" x="0px" y="0px" viewBox="0 0 100 125" enable-background="new 0 0 100 100" xml:space="preserve"><g><path d="M94.559,73.592V31.575H63.626c0.149-0.453,0.071-1.218,0.071-1.218V23.03c0-1.246-0.559-1.889-0.559-1.889   c-0.186-0.187-0.203-0.665-0.203-0.665l-0.521-4.482c0.186-0.188-0.065-0.458-0.065-0.458c-0.54-0.415-1.853-0.062-1.853-0.062   c-0.271,0.374-0.094,0.52-0.094,0.52l-0.499,4.503c-0.125,0.623-0.479,0.893-0.479,0.893c-0.497,0.581-0.562,1.681-0.562,1.681   v7.348c0,0.593,0.139,0.961,0.243,1.155h-32.22V27.31l2.218-1.871l3.309-2.789h-6.618h-6.619l3.31,2.789l2.168,1.828v4.308H4.203   v42.017h26.772v3.719h-8.924v2.23h20.451v-2.23h-9.296v-3.719h31.605v3.719h-9.295v2.23h20.45v-2.23h-8.924v-3.719H94.559z    M33.206,71.361V49.793h4.834c2.464,0,4.462-1.997,4.462-4.461v-1.859c0-2.465-1.998-4.462-4.462-4.462H26.513   c-2.464,0-4.462,1.997-4.462,4.462v1.859c0,2.464,1.998,4.461,4.462,4.461h4.462v21.568H6.434V33.806h85.894v37.555H67.043V49.793   h4.462c2.465,0,4.462-1.997,4.462-4.461v-1.859c0-2.465-1.997-4.462-4.462-4.462H59.978c-2.464,0-4.461,1.997-4.461,4.462v1.859   c0,2.464,1.997,4.461,4.461,4.461h4.834v21.568H33.206z"/></g></svg>