<svg xmlns="http://www.w3.org/2000/svg" data-name="Layer 2" viewBox="0 0 100 125" x="0px" y="0px"><title>GANE_ICON_100</title><path d="M75.53,29.05a5.22,5.22,0,0,0,.91-2.92V14a8.58,8.58,0,0,0-2.63-6.19A8.93,8.93,0,0,0,67.54,5.2H20.24A8.84,8.84,0,0,0,11.33,14V25.4a5.27,5.27,0,0,0,3.49,4.95V86.12a8.8,8.8,0,0,0,8.87,8.71h39.9a8.8,8.8,0,0,0,8.86-8.71V71c9.07-.92,16.21-10.12,16.21-21.3C88.67,39.86,83.12,31.49,75.53,29.05ZM14.33,14A5.84,5.84,0,0,1,20.24,8.2H67.54a6,6,0,0,1,4.19,1.71,5.6,5.6,0,0,1,1.72,4v5.8c0,2,.86,6.74-.89,8.08a4.3,4.3,0,0,1-3,.71,3.08,3.08,0,0,1-2.46-1.17c-.94-1.49-.2-3.41-1.33-5a5.38,5.38,0,0,0-3.89-2.27h-.07l-.47,0H52.09l-.51,0h0l-.25,0a5.34,5.34,0,0,0-3,1.47,5.2,5.2,0,0,0-1.6,3.77,2.35,2.35,0,0,1-2.39,2.31H41.2a2.35,2.35,0,0,1-2.39-2.31V25a5.24,5.24,0,0,0-3-4.77,5.41,5.41,0,0,0-2.36-.54H31.08a5.46,5.46,0,0,0-2.35.54,5.32,5.32,0,0,0-3,4.78v.37a2.22,2.22,0,0,1,0,.46,2.38,2.38,0,0,1-2.32,1.85H16.46a2.33,2.33,0,0,1-2.13-2.3ZM24.84,30.48c.13,0,.25-.1.38-.15a5.47,5.47,0,0,0,3.16-3.27c.51-1.46-.07-3.31,1.64-4.11s5.79-.58,5.79,2.07v.37a5.36,5.36,0,0,0,5.39,5.31h3.1A5.36,5.36,0,0,0,49.7,25.4c0-2.78,4.81-2.59,6.6-2.57,2.8,0,6.91-.64,6.92,3,0,2.68-.12,5.44-.12,8.15V80.58A5.54,5.54,0,0,1,57.5,86h-27a5.54,5.54,0,0,1-5.61-5.46ZM71,68.07a1.5,1.5,0,0,0-1.5,1.5V86.12a5.8,5.8,0,0,1-5.86,5.71H23.7a5.8,5.8,0,0,1-5.87-5.71V30.71h4V80.58A8.55,8.55,0,0,0,30.45,89h27a8.54,8.54,0,0,0,8.6-8.46q0-14.44,0-28.88c0-7.07.07-14.14,0-21.2,2.13,1.62,4.88.7,7.27,1a12.71,12.71,0,0,1,6.36,3.39c4,3.73,5.94,9.36,5.94,14.76C85.67,59.83,79.07,68.07,71,68.07Z"/><path d="M71,38.38a1.5,1.5,0,0,0-1.5,1.5V59.51A1.5,1.5,0,0,0,71,61c5.24,0,9.51-5.07,9.51-11.31S76.2,38.38,71,38.38Zm1.5,19.41V41.6c2.87.87,5,4.17,5,8.1S75.32,56.92,72.45,57.79Z"/><path d="M43.64,49.69a4.13,4.13,0,1,0-4.18-4.13A4.16,4.16,0,0,0,43.64,49.69Zm0-5.26a1.13,1.13,0,1,1-1.18,1.13A1.16,1.16,0,0,1,43.64,44.44Z"/><path d="M32.88,68.49a5.67,5.67,0,1,0-5.76-5.67A5.72,5.72,0,0,0,32.88,68.49Zm0-8.34a2.67,2.67,0,1,1-2.76,2.67A2.72,2.72,0,0,1,32.88,60.14Z"/><path d="M41.82,67.83A7.12,7.12,0,1,0,49.06,75,7.19,7.19,0,0,0,41.82,67.83Zm0,11.24A4.12,4.12,0,1,1,46.06,75,4.19,4.19,0,0,1,41.82,79.07Z"/></svg>