<svg xmlns="http://www.w3.org/2000/svg" xmlns:xlink="http://www.w3.org/1999/xlink" version="1.1" x="0px" y="0px" viewBox="0 0 100 125" enable-background="new 0 0 100 100" xml:space="preserve"><path d="M65.127,40.216c-0.208-8.897-15.401-0.955-15.39-16.509c0.011-15.553,0.011-7.832,0.011-7.832l0.624-0.11v-3.53h-4.78h-4.78  v3.53l0.623,0.11c0,0,0-7.722,0.011,7.832c0.011,15.553-15.183,7.611-15.39,16.509c-0.208,8.897,1.626,41.497,1.87,46.634  c0.208,4.365,17.666,3.162,17.666,3.162s17.458,1.203,17.666-3.162C63.501,81.713,65.335,49.113,65.127,40.216z M40.034,59.461  l-1.419-3.164h-0.047l-1.412,3.164h-1.799l2.335-4.25l-2.265-4.142h1.784l1.334,3.064h0.047l1.35-3.064h1.815l-2.273,4.142  l2.35,4.25H40.034z M47.038,59.461l-1.419-3.164h-0.047l-1.412,3.164h-1.799l2.335-4.25l-2.265-4.142h1.784l1.334,3.064h0.047  l1.35-3.064h1.815l-2.273,4.142l2.35,4.25H47.038z M54.041,59.461l-1.419-3.164h-0.047l-1.412,3.164h-1.799l2.335-4.25l-2.265-4.142  h1.784l1.334,3.064h0.047l1.35-3.064h1.815l-2.273,4.142l2.35,4.25H54.041z"/></svg>