<svg xmlns="http://www.w3.org/2000/svg" xmlns:xlink="http://www.w3.org/1999/xlink" version="1.1" x="0px" y="0px" viewBox="0 0 100 125" enable-background="new 0 0 100 100" xml:space="preserve" fill="#333"><rect x="5" y="4.963" fill="none" width="90" height="90"/><path d="M57.681,37.303c-0.149-10.413-2.142-21.001-2.742-23.965l0.187-0.118c0.396-0.249,0.606-0.708,0.537-1.169l-0.38-2.531  h0.258c0,0,0.001,0,0.002,0c0.39,0,0.706-0.316,0.706-0.706c0-0.087-0.017-0.172-0.045-0.249L55.28,5.433  c-0.088-0.301-0.363-0.506-0.676-0.506h-9.208c-0.313,0-0.588,0.206-0.676,0.506l-0.937,3.183c-0.063,0.213-0.022,0.444,0.112,0.622  c0.132,0.179,0.342,0.283,0.563,0.283h0.259l-0.381,2.531c-0.068,0.462,0.143,0.921,0.538,1.169l0.185,0.118  c-0.599,2.963-2.591,13.552-2.74,23.965c-3.077,2.376-4.896,6.054-4.896,9.958v43.152c0,2.529,2.057,4.587,4.586,4.587H57.99  c2.529,0,4.586-2.058,4.586-4.587V47.261C62.576,43.357,60.758,39.679,57.681,37.303z M45.925,6.338h8.151l0.521,1.771H52.76h-5.519  h-1.838L45.925,6.338z M53.223,11.64l-0.228,0.142c-0.124,0.078-0.229,0.178-0.313,0.29h-5.364c-0.084-0.112-0.189-0.212-0.313-0.29  l-0.227-0.142l0.317-2.12h5.809L53.223,11.64z M44.365,88.953c0,0.493-0.399,0.893-0.894,0.893c-0.493,0-0.893-0.399-0.893-0.893  V57.05c0-0.493,0.399-0.894,0.893-0.894c0.494,0,0.894,0.4,0.894,0.894V88.953z M47.731,42.104  c-2.045,0.904-3.366,2.928-3.366,5.157v4.527c0,0.492-0.399,0.893-0.894,0.893c-0.493,0-0.893-0.4-0.893-0.893v-4.527  c0-2.936,1.738-5.603,4.429-6.792c0.451-0.2,0.979,0.004,1.179,0.456S48.182,41.905,47.731,42.104z M45.118,29.244  c0.689-7.579,1.957-14.034,2.313-15.761h5.138c0.356,1.727,1.623,8.179,2.313,15.761H45.118z"/></svg>