<svg xmlns="http://www.w3.org/2000/svg" xmlns:xlink="http://www.w3.org/1999/xlink" version="1.1" x="0px" y="0px" viewBox="0 0 100 125" style="enable-background:new 0 0 100 100;" xml:space="preserve"><style type="text/css">
	.st0{fill:none;stroke:#000000;stroke-width:2;stroke-linecap:round;stroke-miterlimit:10;}
	.st1{fill:none;stroke:#000000;stroke-width:2;stroke-linecap:round;stroke-linejoin:round;stroke-miterlimit:10;}
	.st2{fill:none;stroke:#000000;stroke-width:2;stroke-miterlimit:10;}
</style><path d="M41.5,29.5H41c-1.7,0-3.1-1.4-3.1-3.1v-8.7c0.9-0.3,1.6-1.2,1.6-2.2v-5.1c0-1.3-1-2.3-2.3-2.3h-9.7c-1.3,0-2.3,1-2.3,2.3  v5.1c0,1.2,1,2.2,2.2,2.3v8.6c0,1.7-1.4,3.1-3.1,3.1c-3.2,0-5.9,2.6-5.9,5.9l2,55.6c0,0.5,0.5,1,1,1h23.1c0.5,0,1-0.4,1-1l2-55.6  C47.4,32.1,44.8,29.5,41.5,29.5z M27.2,15.5v-5.1c0-0.2,0.1-0.3,0.3-0.3h9.7c0.2,0,0.3,0.1,0.3,0.3v5.1c0,0.2-0.1,0.3-0.3,0.3h-9.7  C27.3,15.8,27.2,15.6,27.2,15.5z M24.2,31.5c2.8,0,5.1-2.3,5.1-5.1v-8.6h6.5v8.6c0,2.8,2.3,5.1,5.1,5.1h0.5c2.1,0,3.9,1.7,3.9,3.8  l-1,29.3h-23l-1-29.3C20.4,33.2,22.1,31.5,24.2,31.5z M44,74.9H21.8l-0.3-8.2h22.8L44,74.9z M22.3,89.9l-0.5-13.1H44l-0.5,13.1H22.3  z"/><path d="M76,22.8c-5,0-9.1,3.9-9.5,8.8H54.1c-0.3,0-0.7,0.2-0.8,0.5c-0.2,0.3-0.2,0.6-0.1,1c0,0.1,4.5,9.9,2.2,19.5  c-0.4,1.5-0.8,3.1-1.2,4.6c-1.8,6.5-3.6,13.2-0.4,17.3c1.8,2.4,5.2,3.7,10,3.8V90h-5.4c-0.6,0-1,0.4-1,1s0.4,1,1,1h12.9  c0.6,0,1-0.4,1-1s-0.4-1-1-1h-5.4V78.3c5.1-0.1,8.6-1.4,10.5-3.9c3.1-4.1,1.2-10.5-0.6-16.8c-0.5-1.7-1-3.4-1.4-5.1  c-0.9-4-0.7-8.1-0.2-11.4c0.8,0.2,1.7,0.3,2.5,0.3c2,0,3.9-0.6,5.4-1.8c2.2-1.7,3.5-4.4,3.5-7.3C85.5,27.1,81.2,22.8,76,22.8z   M55.6,33.6h18.5c-0.6,1.6-1.6,4.6-2.1,8.2c-0.7,0.5-1.5,0.9-2.7,0.9c-1.6,0-2.4-0.6-3.4-1.4c-1.1-0.8-2.3-1.8-4.6-1.8  c-1.8,0-2.9,0.6-3.8,1.2C56.9,37.6,56.1,35.1,55.6,33.6z M73.7,58.2c1.7,5.8,3.4,11.8,0.9,15c-1.6,2.1-4.8,3.1-9.8,3.1  c0,0-0.1,0-0.1,0c-4.8,0-7.9-1-9.5-3.1c-2.6-3.4-0.9-9.6,0.8-15.6c0.4-1.5,0.9-3.1,1.2-4.7c0.8-3.5,0.8-7,0.5-10.1l0.1-0.1  c1-0.8,1.8-1.4,3.4-1.4c1.6,0,2.4,0.6,3.4,1.4c1.1,0.8,2.4,1.8,4.6,1.8c1,0,1.7-0.2,2.4-0.4C71.5,47,71.6,50,72.3,53  C72.7,54.7,73.2,56.5,73.7,58.2z M80.8,38c-1.2,0.9-3.2,1.9-6.3,1.1c0.8-3.6,1.9-6.1,2-6.2c0.1-0.3,0.1-0.7-0.1-1  c-0.2-0.3-0.5-0.5-0.8-0.5h-7c0.4-3.8,3.6-6.8,7.5-6.8c4.1,0,7.5,3.4,7.5,7.5C83.5,34.6,82.5,36.7,80.8,38z"/><path d="M78.4,32.3c0,0.6,0.4,1,1,1h2.1c0.6,0,1-0.4,1-1s-0.4-1-1-1h-2.1C78.8,31.3,78.4,31.8,78.4,32.3z"/><path d="M76,25.9c-0.6,0-1,0.4-1,1v2.1c0,0.6,0.4,1,1,1s1-0.4,1-1v-2.1C77,26.3,76.6,25.9,76,25.9z"/><path d="M79.1,34c-0.4-0.4-1-0.4-1.4,0s-0.4,1,0,1.4l1.5,1.5c0.2,0.2,0.5,0.3,0.7,0.3s0.5-0.1,0.7-0.3c0.4-0.4,0.4-1,0-1.4L79.1,34z  "/><path d="M72.9,27.8c-0.4-0.4-1-0.4-1.4,0c-0.4,0.4-0.4,1,0,1.4l1.5,1.5c0.2,0.2,0.5,0.3,0.7,0.3s0.5-0.1,0.7-0.3  c0.4-0.4,0.4-1,0-1.4L72.9,27.8z"/><path d="M78.4,30.9c0.3,0,0.5-0.1,0.7-0.3l1.5-1.5c0.4-0.4,0.4-1,0-1.4s-1-0.4-1.4,0l-1.5,1.5c-0.4,0.4-0.4,1,0,1.4  C77.9,30.8,78.2,30.9,78.4,30.9z"/><path d="M64.5,62.7L62,60.1c-0.7-0.7-1.9-0.7-2.5,0L57,62.7c-0.7,0.7-0.7,1.8,0,2.5l2.5,2.5c0.3,0.3,0.8,0.5,1.3,0.5  c0.5,0,0.9-0.2,1.3-0.5l2.5-2.5C65.2,64.5,65.2,63.4,64.5,62.7z M60.8,66.2l-2.2-2.2l2.2-2.2l2.2,2.2L60.8,66.2z"/><path d="M70.9,66.6l-3.5-0.5c-0.5-0.1-0.9,0.1-1.3,0.3c-0.4,0.3-0.6,0.7-0.7,1.2l-0.5,3.5c-0.1,0.5,0.1,0.9,0.3,1.3  c0.3,0.4,0.7,0.6,1.2,0.7l3.5,0.5c0.1,0,0.2,0,0.3,0c0.4,0,0.8-0.1,1.1-0.4c0.4-0.3,0.6-0.7,0.7-1.2l0.5-3.5  c0.1-0.5-0.1-0.9-0.3-1.3C71.8,66.9,71.4,66.7,70.9,66.6z M70,71.7l-3.1-0.4l0.4-3.1l3.1,0.4L70,71.7z"/><path d="M64.7,59.8l3.3,1.4c0.2,0.1,0.5,0.1,0.7,0.1c0.2,0,0.5,0,0.7-0.1c0.4-0.2,0.8-0.5,1-1l1.4-3.3c0.4-0.9-0.1-2-1-2.3l-3.3-1.4  c-0.9-0.4-2,0.1-2.3,1l-1.4,3.3C63.4,58.4,63.8,59.5,64.7,59.8z M66.9,55.2l2.9,1.2l-1.2,2.9l-2.9-1.2L66.9,55.2z"/></svg>