<svg xmlns="http://www.w3.org/2000/svg" xmlns:xlink="http://www.w3.org/1999/xlink" version="1.1" x="0px" y="0px" viewBox="0 0 100 125" enable-background="new 0 0 100 100" xml:space="preserve" fill="#333"><path d="M80.146,74.989l-5.067-21.145c-0.699-3.496-3.67-5.942-7.34-5.942H31.563c-3.67,0-6.99,2.446-7.515,6.116l-4.02,21.146  c0,0.523-0.699,0.699-1.049,0.699c-0.524-0.176-0.699-0.525-0.699-1.049l4.02-20.971c0.874-4.545,4.719-7.689,9.263-7.689h36.175  c4.543,0,8.213,2.971,9.087,7.164l5.068,21.32c0.175,0.35-0.35,0.875-0.699,1.049C80.845,75.864,80.32,75.339,80.146,74.989z   M92.903,27.456h-9.088c-0.35,0-0.699,0.35-0.699,0.699c-0.35,0.873-0.698,1.572-1.397,1.922v2.447c0,0.698,0.175,0.873,0.699,0.873  h2.446c0.175,0,0.35,0.35,0.35,0.524v1.224c0,0.35-0.175,0.523-0.35,0.523c-1.224,0-2.796,0.525-3.146,1.049  c0,0.175-0.175,0.175-0.35,0.175h-2.098c-0.175,0-0.35,0-0.523-0.175c-0.175-0.523-1.923-1.049-2.972-1.049  c-0.35,0-0.35-0.174-0.35-0.523v-1.224c0-0.175,0-0.524,0.35-0.524h2.272c0.524,0,1.048-0.175,1.048-0.873v-2.447  c-0.873-0.35-1.223-1.049-1.572-1.922c0-0.35-0.35-0.699-0.699-0.699H23c-0.35,0-0.699,0.35-0.699,0.699  c-0.35,0.873-0.699,1.572-1.397,1.922v2.447c0,0.698,0.175,0.873,0.698,0.873h2.447c0.175,0,0.35,0.35,0.35,0.524v1.224  c0,0.35-0.175,0.523-0.35,0.523c-1.224,0-2.797,0.525-3.146,1.049c0,0.175-0.175,0.175-0.35,0.175h-2.098  c-0.175,0-0.35,0-0.524-0.175c-0.175-0.523-1.922-1.049-2.971-1.049c-0.35,0-0.35-0.174-0.35-0.523v-1.224  c0-0.175,0-0.524,0.35-0.524h2.272c0.523,0,1.048-0.175,1.048-0.873v-2.447c-0.873-0.35-1.223-1.049-1.572-1.922  c0-0.35-0.35-0.699-0.699-0.699H7.271c-0.35,0-0.873,0.523-0.873,0.873L5,47.028c0.524,10.137,2.446,19.748,3.146,29.534  c0.35,2.272,2.098,4.02,4.369,4.02v1.048c0,0.525,0.35,0.875,0.874,0.875h5.417c0.524,0,0.874-0.35,0.874-0.875v-1.048H80.32v1.048  c0,0.525,0.35,0.875,0.874,0.875h5.417c0.524,0,0.874-0.35,0.874-0.875v-1.048c2.446,0,4.194-1.747,4.369-4.194  C92.729,66.776,94.65,57.165,95,47.028l-1.224-18.699C93.776,27.979,93.252,27.456,92.903,27.456z M94.476,21.864  c0-2.447-1.922-4.369-4.369-4.369H10.068c-2.447,0-4.369,2.097-4.369,4.543v1.748c0,0.523,0.35,0.873,0.874,0.873h87.028  c0.524,0,0.874-0.35,0.874-0.873V21.864z"/></svg>