<svg xmlns="http://www.w3.org/2000/svg" xmlns:xlink="http://www.w3.org/1999/xlink" version="1.1" x="0px" y="0px" viewBox="0 0 100 125" enable-background="new 0 0 100 100" xml:space="preserve" fill="#333"><path d="M74.749,12.751C68.139,6.14,59.352,2.5,49.999,2.5c-9.348,0-18.137,3.64-24.748,10.251  c-6.609,6.61-10.25,15.399-10.25,24.749c0,6.32,1.459,11.615,4.596,16.668c2.768,4.463,6.482,8.148,10.414,12.051  c7.252,7.195,15.473,15.354,18.975,30.475C49.095,97.165,49.515,97.5,50,97.5c0.486,0,0.904-0.335,1.014-0.807  C54.516,81.572,62.74,73.415,69.99,66.218c3.932-3.901,7.646-7.588,10.412-12.051c3.139-5.053,4.6-10.348,4.6-16.668  C84.999,28.151,81.357,19.361,74.749,12.751z M49.999,64.77c-15.035,0-27.27-12.229-27.27-27.269S34.964,10.23,49.999,10.23  c15.037,0,27.271,12.234,27.271,27.271S65.036,64.77,49.999,64.77z"/><path d="M63.481,22.538c-0.039,0-0.078,0.004-0.123,0.01l-7.862,1.106c-0.255,0.038-0.449,0.233-0.496,0.48l-1.938,4.731H36.622  c-0.232,0-0.445,0.104-0.568,0.278c-0.137,0.194-0.137,0.444,0,0.642L46.971,45.21v6.712c-1.402,0.028-2.697,0.139-3.67,0.309  c-1.26,0.224-1.818,0.512-1.818,0.936v0.271h12.459v-0.271c0-0.424-0.563-0.712-1.818-0.936c-0.971-0.17-2.264-0.276-3.668-0.309  V45.21L59.37,29.785c0.139-0.198,0.139-0.448,0-0.642c-0.125-0.174-0.332-0.278-0.564-0.278h-4.449l1.697-4.146  c1.555-0.222,7.434-1.063,7.521-1.081c0.313-0.059,0.498-0.292,0.471-0.579C64.008,22.739,63.795,22.538,63.481,22.538z   M51.465,32.753H39.744l-1.904-2.692h14.728L51.465,32.753z M57.584,30.061l-1.906,2.692h-2.916l1.103-2.692H57.584z"/></svg>