<svg xmlns:x="http://ns.adobe.com/Extensibility/1.0/" xmlns:i="http://ns.adobe.com/AdobeIllustrator/10.0/" xmlns:graph="http://ns.adobe.com/Graphs/1.0/" xmlns="http://www.w3.org/2000/svg" xmlns:xlink="http://www.w3.org/1999/xlink" version="1.1" x="0px" y="0px" viewBox="0 0 64 80" enable-background="new 0 0 64 64" xml:space="preserve" fill="#333"><metadata><sfw xmlns="http://ns.adobe.com/SaveForWeb/1.0/"><slices/><sliceSourceBounds height="16384" width="16389" x="-8165" y="-8160" bottomLeftOrigin="true"/></sfw></metadata><g><g><path d="M40.357,23.442c1.854-0.012,3.594-0.737,4.905-2.048c1.322-1.322,2.051-3.08,2.051-4.95c0-1.87-0.729-3.627-2.051-4.95    s-3.079-2.05-4.949-2.05s-3.627,0.728-4.949,2.05c-1.312,1.312-2.037,3.053-2.049,4.906c-0.033,0.028-0.072,0.042-0.103,0.075    l-2.676,2.919l6.827,6.827l2.919-2.676C40.315,23.515,40.33,23.475,40.357,23.442z"/><path d="M17.686,40.485c0.188,0.188,0.442,0.293,0.708,0.293c0.265,0,0.52-0.105,0.707-0.293l2.121-2.122l0.707,0.707    c0.195,0.195,0.451,0.293,0.707,0.293c0.242,0,0.484-0.087,0.676-0.263l12.576-11.527l-6.704-6.704L17.656,33.445    c-0.362,0.395-0.349,1.004,0.03,1.383l0.707,0.707l-2.121,2.121c-0.391,0.391-0.391,1.023,0,1.414l0,0.001l-3.536,3.535    c-2.729,2.729-2.729,7.17,0,9.899c1.365,1.364,3.158,2.047,4.95,2.047s3.585-0.683,4.949-2.047c1.95-1.948,5.122-1.95,7.071,0    c0.195,0.195,0.451,0.293,0.707,0.293s0.512-0.098,0.707-0.293c0.391-0.391,0.391-1.023,0-1.414c-2.729-2.729-7.17-2.729-9.899,0    c-1.949,1.949-5.121,1.949-7.071,0c-1.949-1.949-1.949-5.122,0-7.071L17.686,40.485z"/><path d="M52.929,34.333c-0.243-0.19-0.561-0.26-0.857-0.182l-8,2c-0.445,0.111-0.758,0.511-0.758,0.97v7.185    c-0.314-0.112-0.647-0.185-1-0.185c-1.654,0-3,1.346-3,3s1.346,3,3,3s3-1.346,3-3v-9.219l6-1.5v5.903    c-0.314-0.112-0.647-0.185-1-0.185c-1.654,0-3,1.346-3,3s1.346,3,3,3s3-1.346,3-3v-10C53.313,34.813,53.172,34.522,52.929,34.333z    "/></g></g></svg>