<svg xmlns:x="http://ns.adobe.com/Extensibility/1.0/" xmlns:i="http://ns.adobe.com/AdobeIllustrator/10.0/" xmlns:graph="http://ns.adobe.com/Graphs/1.0/" xmlns="http://www.w3.org/2000/svg" xmlns:xlink="http://www.w3.org/1999/xlink" version="1.1" x="0px" y="0px" viewBox="0 0 64 80" enable-background="new 0 0 64 64" xml:space="preserve" fill="#333"><metadata><sfw xmlns="http://ns.adobe.com/SaveForWeb/1.0/"><slices/><sliceSourceBounds height="16384" width="16389" x="-8165" y="-8160" bottomLeftOrigin="true"/></sfw></metadata><g><g><path d="M56,14H28.385L8.743,6.143C8.126,5.896,7.428,5.972,6.879,6.344C6.329,6.716,6,7.336,6,8v40    c0,0.817,0.498,1.554,1.257,1.857l20,8c0.063,0.025,0.128,0.038,0.192,0.057c0.054,0.015,0.105,0.035,0.161,0.047    c0.129,0.025,0.259,0.04,0.389,0.04c0.002,0,0.004-0.001,0.006-0.001H56c1.104,0,2-0.896,2-2V16C58,14.896,57.104,14,56,14z     M10,10.954l16,6.4v35.692l-16-6.4V10.954z M54,54H30V18h24V54z"/><path d="M36,26h12c1.104,0,2-0.896,2-2s-0.896-2-2-2H36c-1.104,0-2,0.896-2,2S34.896,26,36,26z"/><path d="M36,34h12c1.104,0,2-0.896,2-2s-0.896-2-2-2H36c-1.104,0-2,0.896-2,2S34.896,34,36,34z"/><path d="M36,42h12c1.104,0,2-0.896,2-2s-0.896-2-2-2H36c-1.104,0-2,0.896-2,2S34.896,42,36,42z"/><path d="M36,50h12c1.104,0,2-0.896,2-2s-0.896-2-2-2H36c-1.104,0-2,0.896-2,2S34.896,50,36,50z"/></g></g></svg>