<svg xmlns:x="http://ns.adobe.com/Extensibility/1.0/" xmlns:i="http://ns.adobe.com/AdobeIllustrator/10.0/" xmlns:graph="http://ns.adobe.com/Graphs/1.0/" xmlns="http://www.w3.org/2000/svg" xmlns:xlink="http://www.w3.org/1999/xlink" version="1.1" x="0px" y="0px" viewBox="0 0 100 125" enable-background="new 0 0 100 100" xml:space="preserve"><metadata><sfw xmlns="http://ns.adobe.com/SaveForWeb/1.0/"><slices/><sliceSourceBounds y="6" x="16" width="63" height="88" bottomLeftOrigin="true"/><optimizationSettings><targetSettings targetSettingsID="0" fileFormat="GIFFormat"><GIFFormat transparency="true" lossy="0" matteColor="#FFFFFF" interlaced="false" noMatteColor="false" webShiftPercent="0" includeCaption="false" reductionAlgorithm="selective" ditherAlgorithm="diffusion" ditherPercent="100" numColors="256" rolloverMasterPalette="false" autoReduce="false"><colorTable isExact="false"/><lockedColors/><colorShiftEntries/></GIFFormat></targetSettings></optimizationSettings></sfw></metadata><path d="M78.893,6.943c-0.308-0.77-1.18-1.143-1.949-0.835l-10.18,4.071c-1.722,0.689-3.378,2.562-3.851,4.357L61.212,21H48.924  C48.163,12.603,41.092,6,32.5,6C23.402,6,16,13.402,16,22.5c0,7.416,4.864,13.769,11.809,15.81l-1.289,6.444  c-0.333,1.666-0.061,4.091,0.633,5.64c0.371,0.829,8.912,19.575,21.348,21.01V91H35c-0.829,0-1.5,0.672-1.5,1.5S34.171,94,35,94h30  c0.828,0,1.5-0.672,1.5-1.5S65.828,91,65,91H51.5V71.404c12.437-1.435,20.977-20.181,21.348-21.01  c0.693-1.55,0.966-3.975,0.633-5.641l-4.02-20.096C69.051,22.606,67.092,21,65,21h-0.687l1.5-5.7  c0.229-0.868,1.232-2.003,2.064-2.336l10.179-4.071C78.826,8.585,79.2,7.712,78.893,6.943z M19,22.5C19,15.056,25.056,9,32.5,9  c6.937,0,12.662,5.26,13.412,12H35c-2.092,0-4.051,1.606-4.461,3.657l-2.14,10.698C22.858,33.605,19,28.475,19,22.5z M42.75,55  c-1.381,0-2.5-1.119-2.5-2.5s1.119-2.5,2.5-2.5s2.5,1.119,2.5,2.5S44.131,55,42.75,55z M46.5,62.5c-0.69,0-1.25-0.56-1.25-1.25  S45.81,60,46.5,60s1.25,0.56,1.25,1.25S47.19,62.5,46.5,62.5z M30.33,41l3.151-15.754C33.611,24.594,34.335,24,35,24h25.423  l-4.474,17H30.33z M60.25,57.5c-1.381,0-2.5-1.119-2.5-2.5s1.119-2.5,2.5-2.5s2.5,1.119,2.5,2.5S61.631,57.5,60.25,57.5z M65,24  c0.665,0,1.389,0.594,1.52,1.246L69.671,41h-10.62l4.474-17H65z"/></svg>