<svg xmlns="http://www.w3.org/2000/svg" xmlns:xlink="http://www.w3.org/1999/xlink" version="1.1" x="0px" y="0px" viewBox="0 0 100 125" enable-background="new 0 0 100 100" xml:space="preserve" fill="#333"><path d="M51.698,73.095v10.858c0,0.99-0.803,1.795-1.793,1.795c-0.992,0-1.795-0.805-1.795-1.795V73.095  c0-0.99,0.804-1.794,1.795-1.794C50.896,71.301,51.698,72.104,51.698,73.095z M78.939,39.814c0,5.029-1.061,9.785-2.946,14.015  h-0.091c0,0-2.211,7.339-10.947,9.222c-3.623,0.779-6.81,1.454-9.304,1.979l0.784,22.229c0.002,3.533-2.871,4.78-5.559,4.78H48.94  c-2.688,0-5.559-1.247-5.559-4.747l0.786-22.281c-2.479-0.522-5.634-1.191-9.213-1.96c-8.737-1.883-10.948-9.222-10.948-9.222  c-1.885-4.23-2.947-8.986-2.947-14.015C21.06,22.223,34.018,7.961,50,7.961c5.251,0,10.168,1.556,14.414,4.248  c1.201-0.853,2.663-1.36,4.244-1.36c4.052,0,7.35,3.298,7.35,7.35c0,1.72-0.599,3.301-1.594,4.555  C77.268,27.689,78.939,33.531,78.939,39.814z M68.658,12.425c-1.026,0-1.989,0.271-2.824,0.74c-0.2,0.113-0.393,0.24-0.578,0.375  c-0.031,0.023-0.063,0.047-0.095,0.072c-0.176,0.133-0.346,0.277-0.505,0.431c-0.009,0.008-0.019,0.016-0.027,0.024  c-0.172,0.166-0.331,0.344-0.481,0.531c-0.02,0.024-0.038,0.051-0.058,0.077c-0.12,0.157-0.233,0.321-0.339,0.49  c-0.027,0.046-0.057,0.092-0.084,0.138c-0.107,0.185-0.206,0.375-0.293,0.572c-0.008,0.017-0.016,0.031-0.023,0.047  c-0.091,0.212-0.167,0.433-0.232,0.656c-0.017,0.057-0.029,0.116-0.045,0.174c-0.045,0.172-0.081,0.349-0.109,0.528  c-0.012,0.067-0.023,0.132-0.031,0.2c-0.029,0.236-0.049,0.474-0.049,0.718c0,3.188,2.585,5.774,5.774,5.774  c0.233,0,0.464-0.019,0.69-0.045c0.065-0.008,0.131-0.02,0.195-0.03c0.165-0.026,0.329-0.058,0.489-0.098  c0.063-0.014,0.127-0.031,0.19-0.048c0.187-0.052,0.369-0.114,0.548-0.184c0.024-0.01,0.051-0.019,0.077-0.029  c0.215-0.089,0.424-0.189,0.626-0.304c0.009-0.004,0.017-0.01,0.025-0.014c0.189-0.109,0.372-0.228,0.547-0.356  c0.024-0.017,0.048-0.035,0.072-0.053c0.173-0.13,0.341-0.27,0.499-0.419c0.004-0.004,0.009-0.008,0.014-0.012  c0.342-0.326,0.646-0.694,0.9-1.095c0.567-0.894,0.9-1.951,0.9-3.088C74.433,15.011,71.848,12.425,68.658,12.425z M46.091,55.647  H26.926c1.292,1.979,3.822,4.637,8.411,5.623c3.502,0.755,6.61,1.413,9.076,1.932L46.091,55.647z M54.616,87.292l-0.773-21.885  l-0.034-1.012l-0.179-0.802l-1.542-6.931h-4.358l-1.537,6.912l-0.183,0.82l-0.035,0.993l-0.773,21.936  c0,2.388,2.033,2.894,3.738,2.894h1.937C52.584,90.218,54.616,89.712,54.616,87.292z M72.982,55.647H53.727l1.671,7.575  c2.479-0.521,5.625-1.188,9.174-1.952C69.159,60.284,71.688,57.629,72.982,55.647z"/></svg>