<svg xmlns="http://www.w3.org/2000/svg" xmlns:xlink="http://www.w3.org/1999/xlink" version="1.1" x="0px" y="0px" viewBox="0 0 90 112.5" enable-background="new 0 0 90 90" xml:space="preserve"><g><path fill="#000000" d="M60.3,37.1c-1.3,0.1-2.5,0.3-3.7,0.7c-0.6,0.2-1.2,0.3-1.7,0.3h-7.1c1.8-2.1,2.7-3.9,2.6-5.6   c-0.1-2.3-1.9-3.9-3.5-5.3c-1.2-1-2.3-2-2.4-3.1c0-0.6,0.3-1.3,1.1-2L45,21.5c-1,1-1.4,1.9-1.4,2.8c0.1,1.5,1.3,2.6,2.7,3.8   c1.5,1.3,3.1,2.7,3.1,4.6c0.1,1.6-0.9,3.4-3,5.6H35.1c-0.5,0-1.1-0.1-1.7-0.3c-1.2-0.4-2.5-0.7-3.7-0.7c-7.3-0.4-13.9,6-14,13.2   c0,3.6,1.3,6.9,3.9,9.5c2.5,2.5,5.9,3.9,9.5,3.9c2.8,0,5.4-0.8,7.7-2.4c0.7-0.5,1.7-0.8,2.6-0.8h11.4c1,0,1.9,0.3,2.6,0.8   c2.3,1.6,4.9,2.4,7.7,2.4c3.6,0,6.9-1.4,9.5-3.9c2.5-2.5,3.9-5.9,3.9-9.5C74.2,43.1,67.6,36.7,60.3,37.1z M69.7,59.1   c-2.3,2.3-5.4,3.6-8.7,3.6c-2.5,0-5-0.8-7.1-2.2c-0.9-0.6-2-1-3.2-1H39.3c-1.2,0-2.3,0.3-3.2,1c-2.1,1.5-4.5,2.2-7.1,2.2   c-3.3,0-6.4-1.3-8.7-3.6c-2.3-2.3-3.6-5.5-3.6-8.8c0.1-6.7,6.2-12.5,12.9-12.2c1.2,0.1,2.3,0.3,3.5,0.7c0.7,0.3,1.4,0.4,2,0.4h19.7   c0.6,0,1.3-0.1,2-0.4c1.1-0.4,2.3-0.6,3.5-0.7c6.8-0.3,12.9,5.5,12.9,12.2C73.3,53.6,72,56.7,69.7,59.1z"/><path fill="#000000" d="M63.4,48.6c1.2,0,2.2-1,2.2-2.2s-1-2.2-2.2-2.2s-2.2,1-2.2,2.2S62.2,48.6,63.4,48.6z M63.4,45.2   c0.7,0,1.2,0.6,1.2,1.2c0,0.7-0.6,1.2-1.2,1.2s-1.2-0.6-1.2-1.2C62.2,45.7,62.7,45.2,63.4,45.2z"/><path fill="#000000" d="M63.4,52.2c-1.2,0-2.2,1-2.2,2.2c0,1.2,1,2.2,2.2,2.2s2.2-1,2.2-2.2C65.6,53.2,64.6,52.2,63.4,52.2z    M63.4,55.6c-0.7,0-1.2-0.6-1.2-1.2c0-0.7,0.6-1.2,1.2-1.2s1.2,0.6,1.2,1.2C64.6,55.1,64.1,55.6,63.4,55.6z"/><path fill="#000000" d="M67.4,48.2c-1.2,0-2.2,1-2.2,2.2c0,1.2,1,2.2,2.2,2.2s2.2-1,2.2-2.2C69.6,49.2,68.6,48.2,67.4,48.2z    M67.4,51.6c-0.7,0-1.2-0.6-1.2-1.2c0-0.7,0.6-1.2,1.2-1.2s1.2,0.6,1.2,1.2C68.6,51.1,68.1,51.6,67.4,51.6z"/><path fill="#000000" d="M59.4,48.2c-1.2,0-2.2,1-2.2,2.2c0,1.2,1,2.2,2.2,2.2c1.2,0,2.2-1,2.2-2.2C61.7,49.2,60.7,48.2,59.4,48.2z    M59.4,51.6c-0.7,0-1.2-0.6-1.2-1.2c0-0.7,0.6-1.2,1.2-1.2c0.7,0,1.2,0.6,1.2,1.2C60.7,51.1,60.1,51.6,59.4,51.6z"/><path fill="#000000" d="M32.7,48.1h-2.3c-0.2,0-0.3-0.1-0.3-0.3v-2.3c0-0.7-0.6-1.3-1.3-1.3h-2c-0.7,0-1.3,0.6-1.3,1.3v2.3   c0,0.2-0.1,0.3-0.3,0.3h-2.3c-0.7,0-1.3,0.6-1.3,1.3v2c0,0.7,0.6,1.3,1.3,1.3h2.3c0.2,0,0.3,0.1,0.3,0.3v2.3c0,0.7,0.6,1.3,1.3,1.3   h2c0.7,0,1.3-0.6,1.3-1.3V53c0-0.2,0.1-0.3,0.3-0.3h2.3c0.7,0,1.3-0.6,1.3-1.3v-2C34,48.7,33.5,48.1,32.7,48.1z M33,51.4   c0,0.2-0.1,0.3-0.3,0.3h-2.3c-0.7,0-1.3,0.6-1.3,1.3v2.3c0,0.2-0.1,0.3-0.3,0.3h-2c-0.2,0-0.3-0.1-0.3-0.3V53   c0-0.7-0.6-1.3-1.3-1.3h-2.3c-0.2,0-0.3-0.1-0.3-0.3v-2c0-0.2,0.1-0.3,0.3-0.3h2.3c0.7,0,1.3-0.6,1.3-1.3v-2.3   c0-0.2,0.1-0.3,0.3-0.3h2c0.2,0,0.3,0.1,0.3,0.3v2.3c0,0.7,0.6,1.3,1.3,1.3h2.3c0.2,0,0.3,0.1,0.3,0.3V51.4z"/><path fill="#000000" d="M47.9,50.7l-1.8,1.8c-0.6,0.6-0.6,1.5,0,2.1c0.3,0.3,0.6,0.4,1,0.4s0.8-0.2,1-0.4l1.8-1.8   c0.6-0.6,0.6-1.5,0-2.1C49.4,50.2,48.5,50.2,47.9,50.7z M49.3,52.1l-1.8,1.8c-0.2,0.2-0.5,0.2-0.7,0c-0.2-0.2-0.2-0.5,0-0.7   l1.8-1.8c0.1-0.1,0.2-0.1,0.3-0.1c0.1,0,0.2,0,0.3,0.1C49.4,51.6,49.4,51.9,49.3,52.1z"/><path fill="#000000" d="M41.8,50.7L40,52.5c-0.6,0.6-0.6,1.5,0,2.1c0.3,0.3,0.6,0.4,1,0.4c0.4,0,0.8-0.2,1-0.4l1.8-1.8   c0.3-0.3,0.4-0.6,0.4-1s-0.2-0.8-0.4-1C43.3,50.2,42.4,50.2,41.8,50.7z M43.2,52.1l-1.8,1.8c-0.2,0.2-0.5,0.2-0.7,0   c-0.2-0.2-0.2-0.5,0-0.7l1.8-1.8c0.1-0.1,0.2-0.1,0.3-0.1s0.2,0,0.3,0.1c0.1,0.1,0.1,0.2,0.1,0.3S43.3,52,43.2,52.1z"/></g></svg>